<svg height="463pt" viewBox="0 -39 463.843 463" width="463pt" xmlns="http://www.w3.org/2000/svg">
    <path d="M367.836 288.96h8c33.539.005 64.164-19.058 78.969-49.155 14.804-30.094 11.215-65.989-9.254-92.555-20.473-26.57-54.266-39.191-87.14-32.547A71.862 71.862 0 00257.76 63.61c-18.077-49.797-73.1-75.507-122.898-57.43-49.797 18.083-75.508 73.106-57.43 122.903-43.62 1.375-78.078 37.48-77.425 81.117.656 43.64 36.183 78.692 79.828 78.762" fill="#a3d4f7"/>
    <g fill="#b7f9fe">
        <path d="M199.836 344.96c0 22.09-17.91 40-40 40-22.094 0-40-17.91-40-40 0-22.093 17.906-40 40-40 22.09 0 40 17.907 40 40zm0 0M335.836 312.96c0 22.09-17.91 40-40 40-22.094 0-40-17.91-40-40 0-22.093 17.906-40 40-40 22.09 0 40 17.907 40 40zm0 0M255.836 232.96c0 22.09-17.91 40-40 40-22.094 0-40-17.91-40-40 0-22.093 17.906-40 40-40 22.09 0 40 17.907 40 40zm0 0"/>
    </g>
</svg>
