<svg height="58pt" viewBox="0 -1 58.9 58" width="58pt" xmlns="http://www.w3.org/2000/svg">
    <g fill="#fdd020">
        <path d="M51.898 19.45c0 7.179-5.82 13-13 13s-13-5.821-13-13c0-7.18 5.82-13 13-13s13 5.82 13 13zm0 0M57.898 20.45h-2c-.597 0-1-.4-1-1 0-.598.403-1 1-1h2c.602 0 1 .402 1 1 0 .6-.398 1-1 1zm0 0M50.898 8.45a.9.9 0 01-.699-.302.967.967 0 010-1.398l2-2a.972.972 0 011.403 0c.398.398.398 1 0 1.398l-2 2c-.204.204-.403.301-.704.301zm0 0"/>
    </g>
    <path d="M45.3 44.45c5.7.1 10.5-4.4 10.598-10.098.102-5.704-4.398-10.5-10.097-10.602h-.5c-.7 0-1.403.102-2.102.2-.898-4-4.398-6.802-8.5-6.802-1.3 0-2.5.301-3.597.801-2.301-6-9.102-8.898-15-6.597C11.699 13.05 8.8 17.25 8.699 21.949c0 1.301.2 2.602.7 3.801-5.2 0-9.399 4.3-9.399 9.5s4.2 9.2 9.398 9.2h.204" fill="#d0dad9"/>
    <path d="M26.898 30.45h-8l-4 12h9l-2.796 14 11.796-18h-8zm0 0" fill="#ffa754"/>
    <path d="M40.898 52.45c0 2.198-1.796 4-4 4-2.199 0-4-1.802-4-4 0-3 4-10 4-10s4 7 4 10zm0 0" fill="#60a2d7"/>
    <path d="M37.898 1.45a1 1 0 11-2.001.001 1 1 0 012.001-.002zm0 0" fill="#fdd020"/>
</svg>
