<svg height="463pt" viewBox="0 -43 463.843 463" width="463pt" xmlns="http://www.w3.org/2000/svg">
    <path d="M367.836 288.96h8c33.539.005 64.164-19.058 78.969-49.155 14.804-30.094 11.215-65.989-9.254-92.555-20.473-26.57-54.266-39.191-87.14-32.547A71.862 71.862 0 00257.76 63.61c-18.077-49.797-73.1-75.507-122.898-57.43-49.797 18.083-75.508 73.106-57.43 122.903-43.62 1.375-78.078 37.48-77.425 81.117.656 43.64 36.183 78.692 79.828 78.762" fill="#a3d4f7"/>
    <g fill="#60a2d7">
        <path d="M327.836 376.96a79.569 79.569 0 01-38.027-8.737 63.52 63.52 0 00-31.317-7.262 63.546 63.546 0 00-31.328 7.262 79.614 79.614 0 01-38.027 8.738 79.548 79.548 0 01-38.008-8.738 63.412 63.412 0 00-31.293-7.262c-4.422 0-8-3.582-8-8s3.578-8 8-8a79.544 79.544 0 0138.008 8.734 63.374 63.374 0 0031.293 7.266 63.53 63.53 0 0031.32-7.266 79.641 79.641 0 0138.035-8.734 79.575 79.575 0 0138.016 8.734 63.549 63.549 0 0031.328 7.266 8 8 0 010 16zm0 0M327.836 280.96a79.569 79.569 0 01-38.027-8.737 63.52 63.52 0 00-31.317-7.262 63.546 63.546 0 00-31.328 7.262 79.614 79.614 0 01-38.027 8.738 79.548 79.548 0 01-38.008-8.738 63.412 63.412 0 00-31.293-7.262c-4.422 0-8-3.582-8-8s3.578-8 8-8a79.544 79.544 0 0138.008 8.734 63.374 63.374 0 0031.293 7.266 63.53 63.53 0 0031.32-7.266 79.641 79.641 0 0138.035-8.734 79.575 79.575 0 0138.016 8.734 63.549 63.549 0 0031.328 7.266 8 8 0 010 16zm0 0M327.836 232.96a79.569 79.569 0 01-38.027-8.737 63.52 63.52 0 00-31.317-7.262 63.546 63.546 0 00-31.328 7.262 79.614 79.614 0 01-38.027 8.738 79.548 79.548 0 01-38.008-8.738 63.412 63.412 0 00-31.293-7.262c-4.422 0-8-3.582-8-8s3.578-8 8-8a79.544 79.544 0 0138.008 8.734 63.374 63.374 0 0031.293 7.266 63.53 63.53 0 0031.32-7.266 79.641 79.641 0 0138.035-8.734 79.575 79.575 0 0138.016 8.734 63.549 63.549 0 0031.328 7.266 8 8 0 010 16zm0 0M327.836 328.96a79.569 79.569 0 01-38.027-8.737 63.52 63.52 0 00-31.317-7.262 63.546 63.546 0 00-31.328 7.262 79.614 79.614 0 01-38.027 8.738 79.548 79.548 0 01-38.008-8.738 63.412 63.412 0 00-31.293-7.262c-4.422 0-8-3.582-8-8s3.578-8 8-8a79.544 79.544 0 0138.008 8.734 63.374 63.374 0 0031.293 7.266 63.53 63.53 0 0031.32-7.266 79.641 79.641 0 0138.035-8.734 79.575 79.575 0 0138.016 8.734 63.549 63.549 0 0031.328 7.266 8 8 0 010 16zm0 0"/>
    </g>
</svg>
