<svg height="463pt" viewBox="0 -47 463.843 463" width="463pt" xmlns="http://www.w3.org/2000/svg">
    <path d="M367.836 288.96h8c33.539.005 64.164-19.058 78.969-49.155 14.804-30.094 11.215-65.989-9.254-92.555-20.473-26.57-54.266-39.191-87.14-32.547A71.862 71.862 0 00257.76 63.61c-18.077-49.797-73.1-75.507-122.898-57.43-49.797 18.083-75.508 73.106-57.43 122.903-43.62 1.375-78.078 37.48-77.425 81.117.656 43.64 36.183 78.692 79.828 78.762" fill="#a3d4f7"/>
    <g fill="#b7f9fe">
        <path d="M263.836 336.96c0 17.673-14.328 32-32 32-17.676 0-32-14.327-32-32 0-17.67 14.324-32 32-32 17.672 0 32 14.33 32 32zm0 0M247.836 240.96c0 17.673-14.328 32-32 32-17.676 0-32-14.327-32-32 0-17.67 14.324-32 32-32 17.672 0 32 14.33 32 32zm0 0M175.836 296.96h-12.691l10.347-10.343a8 8 0 00-11.312-11.312l-10.344 10.343v-12.687a8 8 0 00-16 0v12.687l-10.344-10.343a8 8 0 00-11.312 11.312l10.343 10.344h-12.687c-4.422 0-8 3.582-8 8s3.578 8 8 8h12.687l-10.343 10.344a8.001 8.001 0 00-2.184 7.78 8.002 8.002 0 0013.496 3.531l10.344-10.343v12.688a8 8 0 0016 0v-12.688l10.344 10.344a8 8 0 0011.312-11.312l-10.347-10.344h12.69a8 8 0 000-16zm0 0M335.836 264.96h-12.691l10.347-10.343a8 8 0 00-11.312-11.312l-10.344 10.343v-12.687a8 8 0 00-16 0v12.687l-10.344-10.343a8 8 0 00-11.312 11.312l10.343 10.344h-12.687c-4.422 0-8 3.582-8 8s3.578 8 8 8h12.687l-10.343 10.344a8.001 8.001 0 00-2.184 7.78 8.002 8.002 0 0013.496 3.531l10.344-10.343v12.688a8 8 0 0016 0v-12.688l10.344 10.344a8 8 0 0011.312-11.312l-10.347-10.344h12.69a8 8 0 000-16zm0 0"/>
    </g>
</svg>
