<svg height="464pt" viewBox="0 0 464 464" width="464pt" xmlns="http://www.w3.org/2000/svg">
    <path d="M464 232c0 128.129-103.871 232-232 232S0 360.129 0 232 103.871 0 232 0s232 103.871 232 232zm0 0" fill="#d0dad9"/>
    <path d="M200 200l144-80-80 144zm0 0" fill="#ff5b42"/>
    <path d="M264 264l-144 80 80-144zm0 0" fill="#60a2d7"/>
    <g fill="#92aeba">
        <path d="M232 256c-13.254 0-24-10.746-24-24s10.746-24 24-24 24 10.746 24 24-10.746 24-24 24zm0-32a8 8 0 100 16 8 8 0 000-16zm0 0M232 72a8 8 0 01-8-8V32a8 8 0 0116 0v32a8 8 0 01-8 8zm0 0M232 440a8 8 0 01-8-8v-32a8 8 0 0116 0v32a8 8 0 01-8 8zm0 0M432 240h-32a8 8 0 010-16h32a8 8 0 010 16zm0 0M64 240H32a8 8 0 010-16h32a8 8 0 010 16zm0 0"/>
    </g>
</svg>
