<svg height="640" viewBox="-4 0 480 480" width="640" xmlns="http://www.w3.org/2000/svg">
    <g fill="#fdd020">
        <path d="M248 384c-79.527 0-144-64.473-144-144S168.473 96 248 96M120 120a8.001 8.001 0 01-5.656-2.344l-48-48a8 8 0 0111.312-11.312l48 48A8 8 0 01120 120zm0 0M72 248H8a8 8 0 010-16h64a8 8 0 010 16zm0 0M72 424c-3.234 0-6.152-1.95-7.39-4.938s-.551-6.43 1.734-8.718l48-48a8 8 0 0111.312 11.312l-48 48A8.001 8.001 0 0172 424zm0 0"/>
    </g>
    <path d="M394.566 304.55c-56.949-.655-102.597-47.327-102-104.277.317-43.867 27.22-83.152 68-99.304A146.814 146.814 0 00316.856 96 137.92 137.92 0 00240 119.414v241.172a138.18 138.18 0 00208-70.93 93.027 93.027 0 01-53.434 14.895zm0 0" fill="#fce666"/>
    <path d="M424 215.602L453.664 232 448 197.266l24-24.594-33.168-5.07L424 136l-14.832 31.602-33.168 5.07 24 24.594L394.336 232zm0 0" fill="#ffde3d"/>
    <path d="M240 480a8 8 0 01-8-8V8a8 8 0 0116 0v464a8 8 0 01-8 8zm0 0" fill="#92aeba"/>
</svg>
