<svg height="464pt" viewBox="0 -48 464 464" width="464pt" xmlns="http://www.w3.org/2000/svg">
    <path d="M64 64c22.207 0 22.207 32 44.406 32 22.203 0 22.219-32 44.434-32s22.215 32 44.433 32c22.215 0 22.215-32 44.43-32 22.219 0 22.227 32 44.442 32 22.214 0 22.214-32 44.421-32 22.211 0 22.227 32 44.457 32 22.235 0 22.243-32 44.489-32 22.25 0 22.242 32 44.488 32v272H64z" fill="#a3d4f7"/>
    <path d="M64 112c22.207 0 22.207 32 44.406 32 22.203 0 22.219-32 44.434-32s22.215 32 44.433 32c22.215 0 22.215-32 44.43-32 22.219 0 22.227 32 44.442 32 22.214 0 22.214-32 44.421-32 22.211 0 22.227 32 44.457 32 22.235 0 22.243-32 44.489-32 22.25 0 22.242 32 44.488 32v224H64z" fill="#60a2d7"/>
    <path d="M464 368H232C116 368 116 0 0 0v368" fill="#e9cfb7"/>
    <path d="M333.664 178.352a7.923 7.923 0 00-2.61-1.735 7.997 7.997 0 00-6.109 0 7.923 7.923 0 00-2.61 1.735l-32 32a8 8 0 0011.313 11.312L320 203.313V248a8 8 0 0016 0v-44.688l18.344 18.344a8 8 0 0011.312-11.312zm0 0" fill="#d0dad9"/>
</svg>
