<svg height="464pt" viewBox="0 -16 464 464" width="464pt" xmlns="http://www.w3.org/2000/svg">
    <path d="M426.29 150.695c-40.673-.933-72.895-34.64-72-75.308.034-31.414 18.972-59.719 48-71.73A101.463 101.463 0 00371.433.073c-54.922 0-99.434 46.559-99.434 104 0 57.438 44.512 104 99.434 104 42.41-.094 79.87-27.668 92.566-68.137a64.589 64.589 0 01-37.71 10.758zm0 0" fill="#fce666"/>
    <path d="M352 336.074h11.031a83.14 83.14 0 0073.66-40.969 83.145 83.145 0 000-84.289 83.14 83.14 0 00-73.66-40.968 86.963 86.963 0 00-16.8 1.648c-6.926-32.023-35.372-54.789-68.133-54.535a70.396 70.396 0 00-29.043 6.281c-16.063-41.289-59.04-65.5-102.676-57.844-43.64 7.657-75.809 45.047-76.86 89.34a88.634 88.634 0 005.426 30.336C33.665 185.804.457 219.238 0 260.52c0 41.73 37.344 75.554 80 75.554" fill="#a3d4f7"/>
    <g fill="#b7f9fe">
        <path d="M192 376.074h-20.688l18.344-18.344a8 8 0 00-11.312-11.312L160 364.762v-20.688a8 8 0 00-16 0v20.688l-18.344-18.344a8 8 0 00-11.312 11.312l18.344 18.344H112a8 8 0 000 16h20.688l-18.344 18.344a7.997 7.997 0 00-2.18 7.781 8 8 0 0013.492 3.531L144 403.387v20.687a8 8 0 0016 0v-20.687l18.344 18.343a8 8 0 0011.312-11.312l-18.344-18.344H192a8 8 0 000-16zm0 0M320 360.074h-20.688l18.344-18.344a8 8 0 00-11.312-11.312L288 348.762v-20.688a8 8 0 00-16 0v20.688l-18.344-18.344a8 8 0 00-11.312 11.312l18.344 18.344H240a8 8 0 000 16h20.688l-18.344 18.344a7.997 7.997 0 00-2.18 7.781 8 8 0 0013.492 3.531L272 387.387v20.687a8 8 0 0016 0v-20.687l18.344 18.343a8 8 0 0011.312-11.312l-18.344-18.344H320a8 8 0 000-16zm0 0M232 312.074a8 8 0 005.656-13.656l-18.344-18.344H240a8 8 0 000-16h-20.688l18.344-18.344a8 8 0 00-11.312-11.312L208 252.762v-20.688a8 8 0 00-16 0v20.688l-18.344-18.344a8 8 0 00-11.312 11.312l18.344 18.344H160a8 8 0 000 16h20.688l-18.344 18.344a7.997 7.997 0 00-2.18 7.781 8 8 0 0013.492 3.531L192 291.387v20.687a8 8 0 0016 0v-20.687l18.344 18.343a8.001 8.001 0 005.656 2.344zm0 0"/>
    </g>
</svg>
