<svg height="464pt" viewBox="-8 0 464 464.177" width="464pt" xmlns="http://www.w3.org/2000/svg">
    <path d="M360.09 336.164c-92.785 0-168-75.215-168-168 .945-71.27 45.36-134.715 112-160a247.242 247.242 0 00-72-8c-128.133 0-232 103.871-232 232 0 128.129 103.867 232 232 232 97.191 1.05 184.176-60.156 216-152a155.763 155.763 0 01-88 24zm0 0" fill="#fce666"/>
    <path d="M352.09 202.3l44.496 21.864-8.496-46.312 36-32.801-49.754-6.75-22.246-42.137-22.25 42.137-49.75 6.75 36 32.8-8.496 46.313zm0 0" fill="#ffde3d"/>
</svg>
