<svg height="464pt" viewBox="-88 0 464 464" width="464pt" xmlns="http://www.w3.org/2000/svg">
    <path d="M288 314.855C288 397.223 223.527 464 144 464S0 397.223 0 314.855C0 232.488 144 0 144 0s144 232.488 144 314.855zm0 0" fill="#60a2d7"/>
    <g fill="#a3d4f7">
        <path d="M104 392a8 8 0 01-6.504-12.648l80-112a8 8 0 0111.16-1.864 8 8 0 011.864 11.16l-80 112A8 8 0 01104 392zm0 0M104 328c-13.457 0-24-14.055-24-32s10.543-32 24-32 24 14.055 24 32-10.543 32-24 32zm0-48c-3.266 0-8 6.23-8 16s4.734 16 8 16 8-6.23 8-16-4.734-16-8-16zm0 0M184 392c-13.457 0-24-14.055-24-32s10.543-32 24-32 24 14.055 24 32-10.543 32-24 32zm0-48c-3.266 0-8 6.23-8 16s4.734 16 8 16 8-6.23 8-16-4.734-16-8-16zm0 0"/>
    </g>
</svg>
