<svg height="479pt" viewBox="0 -51 479.917 479" width="479pt" xmlns="http://www.w3.org/2000/svg">
    <path d="M239.957.457c-114.875 0-208 93.125-208 208v80h96v-80c0-61.855 50.145-112 112-112s112 50.145 112 112v80h96v-80c0-114.875-93.125-208-208-208zm0 0" fill="#ff5b42"/>
    <path d="M239.957 32.457c-97.2 0-176 78.8-176 176v80h64v-80c0-61.855 50.145-112 112-112s112 50.145 112 112v80h64v-80c0-97.2-78.797-176-176-176zm0 0" fill="#fce666"/>
    <path d="M239.957 64.457c-79.527 0-144 64.473-144 144v80h32v-80c0-61.855 50.145-112 112-112s112 50.145 112 112v80h32v-80c0-79.527-64.469-144-144-144zm0 0" fill="#60a2d7"/>
    <g fill="#a3d4f7">
        <path d="M7.957 329.348c.094 21.691 17.754 39.203 39.45 39.109h132.687c19.418 0 35.238-15.586 35.531-35.004.29-19.414-15.059-35.469-34.465-36.05a42.191 42.191 0 002.528-14.282c-.184-20.726-15.114-38.383-35.524-42.016-20.41-3.628-40.508 7.797-47.828 27.192a32.337 32.337 0 00-28.027.5 32.325 32.325 0 00-17.094 22.215 39.738 39.738 0 00-7.809-.801c-21.703-.094-39.367 17.434-39.449 39.137zm0 0"/>
        <path d="M180.102 376.457H47.406a47.116 47.116 0 01-40.304-71.992 47.115 47.115 0 0142.457-22.184 40.42 40.42 0 0137.312-24.933 39.888 39.888 0 019.277 1.086c11.368-20.149 34.86-30.141 57.258-24.352 22.403 5.785 38.114 25.906 38.297 49.04a50.836 50.836 0 01-.594 7.624c21.352 5.399 35.309 25.895 32.504 47.738-2.804 21.844-21.488 38.149-43.511 37.973zM47.406 298.234c-17.183 0-31.113 13.93-31.113 31.114 0 17.18 13.93 31.109 31.113 31.109h132.696c15.113.086 27.468-12.023 27.687-27.133.219-15.113-11.777-27.574-26.887-27.93a7.996 7.996 0 01-6.375-3.488 8.01 8.01 0 01-.922-7.207 34.128 34.128 0 002.06-11.578c-.212-16.848-12.372-31.168-28.966-34.101-16.594-2.938-32.926 6.347-38.902 22.101a7.998 7.998 0 01-10.817 4.473 24.304 24.304 0 00-33.941 17.023c-.879 4.324-5.094 7.117-9.418 6.25a31.95 31.95 0 00-6.215-.633zm0 0M432.512 290.234a39.708 39.708 0 00-7.809.801 32.32 32.32 0 00-45.121-22.71c-7.32-19.4-27.418-30.825-47.828-27.196-20.41 3.633-35.34 21.289-35.524 42.016a42.001 42.001 0 002.528 14.28c-19.192.864-34.219 16.825-33.934 36.032.29 19.211 15.79 34.711 35 35h132.688c21.597 0 39.11-17.508 39.11-39.11 0-21.6-17.513-39.113-39.11-39.113zm0 0"/>
        <path d="M432.512 376.457h-132.7c-22.019.168-40.69-16.14-43.492-37.98-2.8-21.844 11.153-42.336 32.504-47.73a50.563 50.563 0 0111.742-40.813 50.567 50.567 0 0138.704-17.477 51.325 51.325 0 0144.511 25.977 39.946 39.946 0 019.281-1.086 40.426 40.426 0 0137.297 24.933 47.12 47.12 0 0143.551 70.078 47.114 47.114 0 01-41.398 24.098zm-93.242-128c-19.239-.078-34.91 15.426-35.04 34.664a34.22 34.22 0 002.055 11.578l3.723 10.399-11.016.32c-15.11.355-27.11 12.82-26.89 27.93s12.578 27.218 27.687 27.132h132.723c17.18 0 31.11-13.925 31.11-31.109s-13.93-31.113-31.11-31.113a32.182 32.182 0 00-6.242.617l-7.825 1.598-1.597-7.813a24.308 24.308 0 00-33.945-17.027l-7.801 3.578-3.016-8.047a35.202 35.202 0 00-32.816-22.707zm0 0"/>
    </g>
</svg>
