<svg height="464pt" viewBox="0 -104 464 464" width="464pt" xmlns="http://www.w3.org/2000/svg">
    <path d="M232 0C103.871 0 0 103.871 0 232v24h96v-24c0-75.11 60.89-136 136-136s136 60.89 136 136v24h96v-24C464 103.871 360.129 0 232 0zm0 0" fill="#ff5b42"/>
    <path d="M232 32C121.543 32 32 121.543 32 232v24h64v-24c0-75.11 60.89-136 136-136s136 60.89 136 136v24h64v-24c0-110.457-89.543-200-200-200zm0 0" fill="#fce666"/>
    <path d="M232 64c-92.785 0-168 75.215-168 168v24h32v-24c0-75.11 60.89-136 136-136s136 60.89 136 136v24h32v-24c0-92.785-75.215-168-168-168zm0 0" fill="#60a2d7"/>
</svg>
