<svg height="628" viewBox="0 -16 471.998 471" width="628" xmlns="http://www.w3.org/2000/svg">
    <g fill="#fdd020">
        <path d="M384 160.598a8.002 8.002 0 01-7.39-4.938 8.005 8.005 0 011.734-8.719l48-48a8 8 0 0111.312 11.313l-48 48a8.001 8.001 0 01-5.656 2.344zm0 0M248 296.598a8.002 8.002 0 01-7.39-4.938 8.005 8.005 0 011.734-8.719l112-112a8 8 0 0111.312 11.313l-112 112a8.001 8.001 0 01-5.656 2.344zm0 0M304 152.598a8.002 8.002 0 01-7.39-4.938 8.005 8.005 0 011.734-8.719l48-48a8 8 0 0111.312 11.313l-48 48a8.001 8.001 0 01-5.656 2.344zm0 0M168 288.598a8.002 8.002 0 01-7.39-4.938 8.005 8.005 0 011.734-8.719l112-112a8 8 0 0111.312 11.313l-112 112a8.001 8.001 0 01-5.656 2.344zm0 0"/>
    </g>
    <path d="M96 410.535l59.328 30.063L144 376.918l48-45.098-66.336-9.285L96 264.598l-29.664 57.937L0 331.82l48 45.098-11.328 63.68zm0 0" fill="#ffde3d"/>
    <path d="M469.656 146.941a8.004 8.004 0 00-11.312 0l-208 208a8 8 0 1011.312 11.313l208-208a8.004 8.004 0 000-11.313zm0 0M152 224.598a8.002 8.002 0 01-7.39-4.938 8.005 8.005 0 011.734-8.719l208-208a8 8 0 1111.312 11.313l-208 208a8.001 8.001 0 01-5.656 2.344zm0 0" fill="#fdd020"/>
</svg>
