<svg height="400pt" viewBox="0 0 400 400" width="400pt" xmlns="http://www.w3.org/2000/svg">
    <g fill="#a3d4f7">
        <path d="M200 400a8 8 0 01-8-8V248a8 8 0 0116 0v144a8 8 0 01-8 8zm0 0"/>
        <path d="M232 384a8.001 8.001 0 01-5.656-2.344L200 355.312l-26.344 26.344a8 8 0 01-11.312-11.312l32-32a8.004 8.004 0 0111.312 0l32 32A8 8 0 01232 384zm0 0M200 160a8 8 0 01-8-8V8a8 8 0 0116 0v144a8 8 0 01-8 8zm0 0"/>
        <path d="M200 64a8.001 8.001 0 01-5.656-2.344l-32-32a8 8 0 0111.312-11.312L200 44.687l26.344-26.343a8 8 0 0111.312 11.312l-32 32A8.001 8.001 0 01200 64zm0 0M392 208H248a8 8 0 010-16h144a8 8 0 010 16zm0 0"/>
        <path d="M376 240a8.001 8.001 0 01-5.656-2.344l-32-32a8.004 8.004 0 010-11.312l32-32a8 8 0 0111.312 11.312L355.312 200l26.344 26.344A8 8 0 01376 240zm0 0M152 208H8a8 8 0 010-16h144a8 8 0 010 16zm0 0"/>
        <path d="M24 240c-3.234 0-6.152-1.95-7.39-4.938s-.551-6.43 1.734-8.718L44.687 200l-26.343-26.344a8 8 0 0111.312-11.312l32 32a8.004 8.004 0 010 11.312l-32 32A8.001 8.001 0 0124 240zm0 0"/>
    </g>
    <path d="M360 360l-64-16-16-64 64 16zm0 0" fill="#b7f9fe"/>
    <path d="M360 368a8.096 8.096 0 01-1.938-.238l-64-16a8.009 8.009 0 01-5.824-5.817l-16-64a8.011 8.011 0 012.102-7.597 8.006 8.006 0 017.597-2.11l64 16a8.009 8.009 0 015.825 5.817l16 64a8.007 8.007 0 01-1.453 6.867A8.011 8.011 0 01360 368zm-57.406-30.602L348.992 349l-11.601-46.398L290.992 291zm0 0" fill="#a3d4f7"/>
    <path d="M280 288a8.001 8.001 0 01-5.656-2.344l-48-48a8 8 0 0111.312-11.312l48 48A8 8 0 01280 288zm0 0" fill="#a3d4f7"/>
    <path d="M248 320a7.993 7.993 0 01-6.05-2.758 8.001 8.001 0 01-1.88-6.379l8-56a8.009 8.009 0 016.785-6.785l56-8c4.375-.625 8.43 2.41 9.055 6.785a8 8 0 01-6.781 9.059l-50.067 7.148-7.152 50.067A7.996 7.996 0 01248 320zm0 0" fill="#a3d4f7"/>
    <path d="M40 360l64-16 16-64-64 16zm0 0" fill="#b7f9fe"/>
    <path d="M40 368a8.011 8.011 0 01-6.309-3.078 8.007 8.007 0 01-1.453-6.867l16-64a8.009 8.009 0 015.825-5.817l64-16a8.006 8.006 0 017.597 2.11 8.011 8.011 0 012.102 7.597l-16 64a8.009 8.009 0 01-5.825 5.817l-64 16A8.096 8.096 0 0140 368zm22.594-65.398L50.992 349l46.399-11.602L108.992 291zm0 0" fill="#a3d4f7"/>
    <path d="M120 288c-3.234 0-6.152-1.95-7.39-4.938s-.551-6.43 1.734-8.718l48-48a8 8 0 0111.312 11.312l-48 48A8.001 8.001 0 01120 288zm0 0" fill="#a3d4f7"/>
    <path d="M152 320a7.996 7.996 0 01-7.91-6.863l-7.153-50.067-50.066-7.148a8 8 0 01-6.781-9.059c.625-4.375 4.68-7.41 9.055-6.785l56 8a8.009 8.009 0 016.785 6.785l8 56a8.001 8.001 0 01-1.88 6.38A7.993 7.993 0 01152 320zm0 0" fill="#a3d4f7"/>
    <path d="M360 40l-64 16-16 64 64-16zm0 0" fill="#b7f9fe"/>
    <path d="M280 128a8.011 8.011 0 01-6.309-3.078 8.007 8.007 0 01-1.453-6.867l16-64a8.009 8.009 0 015.824-5.817l64-16a8.006 8.006 0 017.598 2.11 8.011 8.011 0 012.102 7.597l-16 64a8.009 8.009 0 01-5.825 5.817l-64 16A8.096 8.096 0 01280 128zm22.594-65.398L290.992 109l46.399-11.602L348.992 51zm0 0" fill="#a3d4f7"/>
    <path d="M232 176c-3.234 0-6.152-1.95-7.39-4.938s-.551-6.43 1.734-8.718l48-48a8 8 0 0111.312 11.312l-48 48A8.001 8.001 0 01232 176zm0 0" fill="#a3d4f7"/>
    <path d="M312 160c-.383 0-.766-.027-1.145-.078l-56-8a8.009 8.009 0 01-6.785-6.785l-8-56a8.006 8.006 0 016.785-9.059c4.375-.625 8.43 2.41 9.055 6.785l7.153 50.067 50.066 7.148A8 8 0 01312 160zm0 0" fill="#a3d4f7"/>
    <path d="M40 40l64 16 16 64-64-16zm0 0" fill="#b7f9fe"/>
    <path d="M120 128a8.096 8.096 0 01-1.938-.238l-64-16a8.009 8.009 0 01-5.824-5.817l-16-64a8.011 8.011 0 012.102-7.597 8.006 8.006 0 017.597-2.11l64 16a8.009 8.009 0 015.825 5.817l16 64a8.007 8.007 0 01-1.453 6.867A8.011 8.011 0 01120 128zM62.594 97.398L108.992 109 97.391 62.602 50.992 51zm0 0" fill="#a3d4f7"/>
    <path d="M168 176a8.001 8.001 0 01-5.656-2.344l-48-48a8 8 0 0111.312-11.312l48 48A8 8 0 01168 176zm0 0" fill="#a3d4f7"/>
    <path d="M88 160a8 8 0 01-1.129-15.922l50.067-7.148 7.152-50.067c.625-4.375 4.68-7.41 9.055-6.785a8.006 8.006 0 016.785 9.059l-8 56a8.009 8.009 0 01-6.785 6.785l-56 8c-.38.05-.762.078-1.145.078zm0 0" fill="#a3d4f7"/>
    <path d="M248 200c0 26.508-21.492 48-48 48s-48-21.492-48-48 21.492-48 48-48 48 21.492 48 48zm0 0" fill="#b7f9fe"/>
    <path d="M200 256c-30.93 0-56-25.07-56-56s25.07-56 56-56 56 25.07 56 56c-.035 30.914-25.086 55.965-56 56zm0-96c-22.09 0-40 17.91-40 40s17.91 40 40 40 40-17.91 40-40c-.027-22.082-17.918-39.973-40-40zm0 0" fill="#a3d4f7"/>
</svg>
