<svg height="640" viewBox="0 0 480 480" width="640" xmlns="http://www.w3.org/2000/svg">
    <g fill="#92aeba">
        <path d="M328 240c0 48.602-39.398 88-88 88s-88-39.398-88-88 39.398-88 88-88 88 39.398 88 88zm0 0"/>
        <path d="M240 336c-53.02 0-96-42.98-96-96s42.98-96 96-96 96 42.98 96 96c-.059 52.996-43.004 95.941-96 96zm0-176c-44.184 0-80 35.816-80 80s35.816 80 80 80 80-35.816 80-80c-.047-44.164-35.836-79.953-80-80zm0 0"/>
        <path d="M384 480c-132.484-.148-239.852-107.516-240-240a8 8 0 0116 0c.14 123.652 100.348 223.86 224 224a8 8 0 010 16zm0 0"/>
        <path d="M240 336a8 8 0 010-16c123.652-.14 223.86-100.348 224-224a8 8 0 0116 0c-.148 132.484-107.516 239.852-240 240zm0 0M8 392a8 8 0 01-8-8c.148-132.484 107.516-239.852 240-240a8 8 0 010 16c-123.652.14-223.86 100.348-224 224a8 8 0 01-8 8zm0 0"/>
        <path d="M328 248a8 8 0 01-8-8C319.86 116.348 219.652 16.14 96 16a8 8 0 010-16c132.484.148 239.852 107.516 240 240a8 8 0 01-8 8zm0 0"/>
    </g>
</svg>
