<svg height="472pt" viewBox="0 -8 472 472" width="472pt" xmlns="http://www.w3.org/2000/svg">
    <g fill="#fdd020">
        <path d="M416 160c0 57.438-46.563 104-104 104s-104-46.563-104-104S254.563 56 312 56s104 46.563 104 104zm0 0M464 168h-16a8 8 0 010-16h16a8 8 0 010 16zm0 0M296 32a8 8 0 01-8-8V8a8 8 0 0116 0v16a8 8 0 01-8 8zm0 0M408 72c-3.234 0-6.152-1.95-7.39-4.938s-.551-6.43 1.734-8.718l16-16a8 8 0 1111.312 11.312l-16 16A8.001 8.001 0 01408 72zm0 0"/>
    </g>
    <path d="M352 360h11.031c30.172.727 58.364-14.957 73.66-40.969s15.297-58.273 0-84.285a83.124 83.124 0 00-73.66-40.969c-5.64 0-11.265.555-16.8 1.649-6.926-32.024-35.372-54.793-68.133-54.54a70.396 70.396 0 00-29.043 6.282c-16.063-41.29-59.04-65.5-102.676-57.844-43.64 7.656-75.809 45.047-76.86 89.34A88.634 88.634 0 0074.946 209C33.665 209.734.457 243.164 0 284.45 0 326.175 37.344 360 80 360" fill="#a3d4f7"/>
    <path d="M192 400h-20.688l18.344-18.344a8 8 0 00-11.312-11.312L160 388.688V368a8 8 0 00-16 0v20.688l-18.344-18.344a8 8 0 00-11.312 11.312L132.688 400H112a8 8 0 000 16h20.688l-18.344 18.344a8 8 0 1011.312 11.312L144 427.312V448a8 8 0 0016 0v-20.688l18.344 18.344a8 8 0 0011.312-11.312L171.312 416H192a8 8 0 000-16zm0 0M320 384h-20.688l18.344-18.344a8 8 0 00-11.312-11.312L288 372.688V352a8 8 0 00-16 0v20.688l-18.344-18.344a8 8 0 00-11.312 11.312L260.688 384H240a8 8 0 000 16h20.688l-18.344 18.344a8 8 0 1011.312 11.312L272 411.312V432a8 8 0 0016 0v-20.688l18.344 18.344a8 8 0 0011.312-11.312L299.312 400H320a8 8 0 000-16zm0 0M240 288h-20.688l18.344-18.344a8 8 0 00-11.312-11.312L208 276.688V256a8 8 0 00-16 0v20.688l-18.344-18.344a8 8 0 00-11.312 11.312L180.688 288H160a8 8 0 000 16h20.688l-18.344 18.344a8 8 0 1011.312 11.312L192 315.312V336a8 8 0 0016 0v-20.688l18.344 18.344a8 8 0 0011.312-11.312L219.312 304H240a8 8 0 000-16zm0 0" fill="#b7f9fe"/>
</svg>
