<svg height="472pt" viewBox="0 -12 472.123 472" width="472pt" xmlns="http://www.w3.org/2000/svg">
    <g fill="#fdd020">
        <path d="M416.121 160.063c0 57.437-46.558 104-104 104-57.437 0-104-46.563-104-104s46.563-104 104-104c57.442 0 104 46.562 104 104zm0 0M464.121 168.063h-16a8 8 0 010-16h16c4.422 0 8 3.582 8 8s-3.578 8-8 8zm0 0M296.121 32.063a8 8 0 01-8-8v-16a8 8 0 0116 0v16c0 4.417-3.578 8-8 8zm0 0M408.121 72.063a7.994 7.994 0 01-7.387-4.942 7.993 7.993 0 011.735-8.715l16-16a7.994 7.994 0 017.777-2.183 8.012 8.012 0 015.715 5.715 8.004 8.004 0 01-2.184 7.78l-16 16a7.994 7.994 0 01-5.656 2.344zm0 0"/>
    </g>
    <path d="M368.121 360.063c46.93 0 80-37.211 80-83.114-.516-46.41-38.555-83.617-84.965-83.113-5.64.004-11.27.555-16.8 1.648-6.926-32.023-35.376-54.789-68.137-54.535a70.378 70.378 0 00-29.04 6.281c-16.066-41.289-59.042-65.5-102.679-57.843s-75.805 45.047-76.855 89.34a88.537 88.537 0 005.421 30.335A75.512 75.512 0 009.664 247.61a75.512 75.512 0 001.156 75.91 75.518 75.518 0 0066.543 36.543" fill="#a3d4f7"/>
    <path d="M328.121 448.063a79.599 79.599 0 01-38.023-8.739 63.503 63.503 0 00-31.328-7.262 63.526 63.526 0 00-31.32 7.262 79.588 79.588 0 01-38.024 8.738 79.548 79.548 0 01-38.008-8.738 63.48 63.48 0 00-31.297-7.262 8 8 0 010-16 79.483 79.483 0 0138 8.735 63.48 63.48 0 0031.305 7.265 63.53 63.53 0 0031.32-7.265 79.595 79.595 0 0138.024-8.735 79.641 79.641 0 0138.035 8.735 63.514 63.514 0 0031.316 7.265c4.422 0 8 3.583 8 8s-3.578 8-8 8zm0 0M328.121 352.063a79.599 79.599 0 01-38.023-8.739 63.503 63.503 0 00-31.328-7.262 63.526 63.526 0 00-31.32 7.262 79.588 79.588 0 01-38.024 8.738 79.548 79.548 0 01-38.008-8.738 63.48 63.48 0 00-31.297-7.262 8 8 0 010-16 79.483 79.483 0 0138 8.735 63.48 63.48 0 0031.305 7.265 63.53 63.53 0 0031.32-7.265 79.595 79.595 0 0138.024-8.735 79.641 79.641 0 0138.035 8.735 63.514 63.514 0 0031.316 7.265c4.422 0 8 3.583 8 8s-3.578 8-8 8zm0 0M328.121 304.063a79.599 79.599 0 01-38.023-8.739 63.503 63.503 0 00-31.328-7.262 63.526 63.526 0 00-31.32 7.262 79.588 79.588 0 01-38.024 8.738 79.548 79.548 0 01-38.008-8.738 63.48 63.48 0 00-31.297-7.262 8 8 0 010-16 79.483 79.483 0 0138 8.735 63.48 63.48 0 0031.305 7.265 63.53 63.53 0 0031.32-7.265 79.595 79.595 0 0138.024-8.735 79.641 79.641 0 0138.035 8.735 63.514 63.514 0 0031.316 7.265c4.422 0 8 3.583 8 8s-3.578 8-8 8zm0 0M328.121 400.063a79.599 79.599 0 01-38.023-8.739 63.503 63.503 0 00-31.328-7.262 63.526 63.526 0 00-31.32 7.262 79.588 79.588 0 01-38.024 8.738 79.548 79.548 0 01-38.008-8.738 63.48 63.48 0 00-31.297-7.262 8 8 0 010-16 79.483 79.483 0 0138 8.735 63.48 63.48 0 0031.305 7.265 63.53 63.53 0 0031.32-7.265 79.595 79.595 0 0138.024-8.735 79.641 79.641 0 0138.035 8.735 63.514 63.514 0 0031.316 7.265c4.422 0 8 3.583 8 8s-3.578 8-8 8zm0 0" fill="#60a2d7"/>
</svg>
