<svg height="640" viewBox="0 -48 480 480" width="640" xmlns="http://www.w3.org/2000/svg">
    <path d="M360 320H120a8 8 0 010-16h240a8 8 0 010 16zm0 0M376 288H104a8 8 0 010-16h272a8 8 0 010 16zm0 0M304 384H176a8 8 0 010-16h128a8 8 0 010 16zm0 0M344 352H144a8 8 0 010-16h200a8 8 0 010 16zm0 0" fill="#fce666"/>
    <g fill="#fdd020">
        <path d="M240 80a8 8 0 01-8-8V8a8 8 0 0116 0v64a8 8 0 01-8 8zm0 0M120 128a8.001 8.001 0 01-5.656-2.344l-48-48a8 8 0 0111.312-11.312l48 48A8 8 0 01120 128zm0 0M360 128c-3.234 0-6.152-1.95-7.39-4.938s-.551-6.43 1.734-8.718l48-48a8 8 0 0111.312 11.312l-48 48A8.001 8.001 0 01360 128zm0 0M472 256h-64a8 8 0 010-16h64a8 8 0 010 16zm0 0M72 256H8a8 8 0 010-16h64a8 8 0 010 16zm0 0M376 248v-8c0-75.11-60.89-136-136-136s-136 60.89-136 136v8zm0 0"/>
        <path d="M384 256H96v-16c0-79.527 64.473-144 144-144s144 64.473 144 144zm-272-16h256c0-70.691-57.309-128-128-128s-128 57.309-128 128zm0 0"/>
    </g>
    <path d="M277.656 202.344a8.004 8.004 0 00-11.312 0L248 220.688V176a8 8 0 00-16 0v44.688l-18.344-18.344a8 8 0 00-11.312 11.312l32 32c1.5 1.504 3.539 2.352 5.664 2.352s4.164-.848 5.664-2.352l32-32a8 8 0 00-.016-11.312zm0 0" fill="#f69c7f"/>
</svg>
