<svg height="464pt" viewBox="-144 0 464 464" width="464pt" xmlns="http://www.w3.org/2000/svg">
    <path d="M88 360V32C88 14.328 73.672 0 56 0S24 14.328 24 32v328a59.996 59.996 0 00-24 48c0 30.93 25.07 56 56 56s56-25.07 56-56a59.996 59.996 0 00-24-48zm0 0" fill="#a3d4f7"/>
    <g fill="#92aeba">
        <path d="M168 336h-48a8 8 0 010-16h48a8 8 0 010 16zm0 0M152 304h-32a8 8 0 010-16h32a8 8 0 010 16zm0 0M168 272h-48a8 8 0 010-16h48a8 8 0 010 16zm0 0M152 240h-32a8 8 0 010-16h32a8 8 0 010 16zm0 0M168 208h-48a8 8 0 010-16h48a8 8 0 010 16zm0 0M152 176h-32a8 8 0 010-16h32a8 8 0 010 16zm0 0M168 144h-48a8 8 0 010-16h48a8 8 0 010 16zm0 0M152 112h-32a8 8 0 010-16h32a8 8 0 010 16zm0 0M168 80h-48a8 8 0 010-16h48a8 8 0 010 16zm0 0"/>
    </g>
    <path d="M64 377.016V192a8 8 0 00-16 0v185.016c-14.176 3.05-24.223 15.687-24 30.183 0 17.676 14.328 32 32 32s32-14.324 32-32c.223-14.496-9.824-27.133-24-30.183zm0 0" fill="#ff5b42"/>
</svg>
