<svg height="640" viewBox="-32 0 480 480.102" width="640" xmlns="http://www.w3.org/2000/svg">
    <path d="M273.387 432a8 8 0 00-8 8c-.414 13.324-11.336 23.91-24.668 23.91S216.465 453.324 216.05 440V208a8 8 0 00-16 0v232c.312 22.238 18.43 40.102 40.668 40.102s40.355-17.864 40.668-40.102a8 8 0 00-8-8zm0 0M208.05 40a8 8 0 01-8-8V8a8 8 0 0116 0v24a8 8 0 01-8 8zm0 0" fill="#d29088"/>
    <path d="M208.05 32C93.177 32 .05 125.125.05 240c0-17.672 25.91-32 48-32s40 14.328 40 32c0-17.672 17.91-32 40-32s40 14.328 40 32c0-17.672 17.91-32 40-32s40 14.328 40 32c0-17.672 17.91-32 40-32s40 14.328 40 32c0-17.672 17.91-32 40-32s48 14.328 48 32c0-114.875-93.124-208-208-208zm0 0" fill="#ff5b42"/>
    <path d="M217.371 32.23c-3.098-.132-6.191-.23-9.32-.23-3.13 0-6.223.098-9.32.23C186.21 34.695 88.05 59.2 88.05 224v16c0-17.672 17.91-32 40-32s40 14.328 40 32c0-17.672 17.91-32 40-32s40 14.328 40 32c0-17.672 17.91-32 40-32s40 14.328 40 32v-16c0-164.8-98.16-189.305-110.68-191.77zm0 0" fill="#fce666"/>
    <path d="M216.395 32.207c-2.743-.102-5.543-.207-8.344-.207s-5.602.105-8.344.207c-3.41 2.313-31.656 26.41-31.656 191.793v16c0-17.672 17.91-32 40-32s40 14.328 40 32v-16c0-165.383-28.246-189.48-31.656-191.793zm0 0" fill="#ff5b42"/>
</svg>
