<svg height="464pt" viewBox="0 0 464 464" width="464pt" xmlns="http://www.w3.org/2000/svg">
    <path d="M8 464V32c0-8.836 7.164-16 16-16s16 7.164 16 16v432" fill="#92aeba"/>
    <g fill="#ff5b42">
        <path d="M263.96 48C216 48 216 16 168 16v128c48 0 48 32 95.96 32 47.962 0 48-32 96-32s48 32 96 32V48c-48 0-48-32-96-32s-47.96 32-96 32zm0 0"/>
        <path d="M464 184h-8a84.015 84.015 0 01-52.45-17.344c-25.76-19.543-61.382-19.543-87.144 0-31.133 23.125-73.738 23.125-104.87 0A67.765 67.765 0 00168 152h-1.887l-128-64H8V72h30.113l128-64H168a83.9 83.9 0 0152.414 17.344A67.804 67.804 0 00263.961 40a67.813 67.813 0 0043.566-14.656c31.145-23.117 73.754-23.117 104.899 0A67.826 67.826 0 00456 40h8zm-294.078-48a83.948 83.948 0 0150.492 17.328c25.75 19.543 61.363 19.543 87.113 0 31.145-23.117 73.754-23.117 104.899 0A68.804 68.804 0 00448 167.656V55.703a84.573 84.573 0 01-44.45-17.047c-25.76-19.543-61.382-19.543-87.144 0A84.004 84.004 0 01263.961 56a83.95 83.95 0 01-52.426-17.344A67.735 67.735 0 00169.855 24l-112 56zm0 0"/>
        <path d="M160 16h16v128h-16zm0 0"/>
    </g>
    <path d="M16 0h16c8.836 0 16 7.164 16 16v16c0 8.836-7.164 16-16 16H16C7.164 48 0 40.836 0 32V16C0 7.164 7.164 0 16 0zm0 0" fill="#92aeba"/>
</svg>
