<svg height="640" viewBox="0 -152 480 480" width="640" xmlns="http://www.w3.org/2000/svg">
    <g fill="#60a2d7">
        <path d="M356 32.035a195.166 195.166 0 01-60.137-8.289 179.314 179.314 0 00-55.925-7.71 178.975 178.975 0 00-55.84 7.71A194.935 194.935 0 01124 32.036a195.116 195.116 0 01-60.129-8.29A179.186 179.186 0 008 16.036a8 8 0 010-16 195.067 195.067 0 0160.121 8.288A179.12 179.12 0 00124 16.035a179.007 179.007 0 0055.84-7.71 195.138 195.138 0 0160.098-8.29 195.308 195.308 0 0160.14 8.29A179.29 179.29 0 00356 16.034a179.185 179.185 0 0055.887-7.71A195.253 195.253 0 01472 .034a8 8 0 010 16 179.3 179.3 0 00-55.887 7.711A195.253 195.253 0 01356 32.036zm0 0M356 80.035a195.166 195.166 0 01-60.137-8.289 179.314 179.314 0 00-55.925-7.71 178.975 178.975 0 00-55.84 7.71A194.935 194.935 0 01124 80.036a195.116 195.116 0 01-60.129-8.29A179.186 179.186 0 008 64.036a8 8 0 010-16 195.067 195.067 0 0160.121 8.288A179.12 179.12 0 00124 64.035a179.007 179.007 0 0055.84-7.71 195.138 195.138 0 0160.098-8.29 195.308 195.308 0 0160.14 8.29A179.29 179.29 0 00356 64.034a179.185 179.185 0 0055.887-7.71A195.253 195.253 0 01472 48.034a8 8 0 010 16 179.3 179.3 0 00-55.887 7.711A195.253 195.253 0 01356 80.036zm0 0M356 128.035a195.166 195.166 0 01-60.137-8.289 179.314 179.314 0 00-55.925-7.71 178.975 178.975 0 00-55.84 7.71 194.935 194.935 0 01-60.098 8.29 195.116 195.116 0 01-60.129-8.29A179.186 179.186 0 008 112.036a8 8 0 010-16 195.067 195.067 0 0160.121 8.288A179.12 179.12 0 00124 112.035a179.007 179.007 0 0055.84-7.71 195.138 195.138 0 0160.098-8.29 195.308 195.308 0 0160.14 8.29 179.29 179.29 0 0055.922 7.71 179.185 179.185 0 0055.887-7.71A195.253 195.253 0 01472 96.034a8 8 0 010 16 179.3 179.3 0 00-55.887 7.711 195.253 195.253 0 01-60.113 8.29zm0 0M356 176.035a195.166 195.166 0 01-60.137-8.289 179.314 179.314 0 00-55.925-7.71 178.975 178.975 0 00-55.84 7.71 194.935 194.935 0 01-60.098 8.29 195.116 195.116 0 01-60.129-8.29A179.186 179.186 0 008 160.036a8 8 0 010-16 195.067 195.067 0 0160.121 8.288A179.12 179.12 0 00124 160.035a179.007 179.007 0 0055.84-7.71 195.138 195.138 0 0160.098-8.29 195.308 195.308 0 0160.14 8.29 179.29 179.29 0 0055.922 7.71 179.185 179.185 0 0055.887-7.71 195.253 195.253 0 0160.113-8.29 8 8 0 010 16 179.3 179.3 0 00-55.887 7.711 195.253 195.253 0 01-60.113 8.29zm0 0"/>
    </g>
</svg>
